<svg xmlns="http://www.w3.org/2000/svg" viewBox="0 0 32 32" fill="none">
  <!-- Speech bubble -->
  <path d="M4 6C4 4.34315 5.34315 3 7 3H25C26.6569 3 28 4.34315 28 6V20C28 21.6569 26.6569 23 25 23H18L12 28V23H7C5.34315 23 4 21.6569 4 20V6Z" fill="#f97316"/>
  <!-- Flame inside bubble -->
  <path d="M16 7C16 7 12 12 12 15.5C12 17.5 13 19 14.5 19.5C13.5 18.5 13.5 17 14 15.5C14.5 14 16 12 16 12C16 12 17.5 14 18 15.5C18.5 17 18.5 18.5 17.5 19.5C19 19 20 17.5 20 15.5C20 12 16 7 16 7Z" fill="white"/>
</svg>
